<mxfile host="www.draw.io" modified="2019-12-09T06:50:39.862Z" agent="Mozilla/5.0 (Windows NT 10.0; Win64; x64) AppleWebKit/537.36 (KHTML, like Gecko) Chrome/78.0.3904.108 Safari/537.36" etag="Uvosqj89_YWYjAZQAGMi" version="12.3.8" type="github" pages="1">
  <diagram id="r_8a1xCY7EOqZlu9KzJ9" name="Page-1">
    <mxGraphModel dx="1024" dy="485" grid="1" gridSize="10" guides="1" tooltips="1" connect="1" arrows="1" fold="1" page="1" pageScale="1" pageWidth="827" pageHeight="1169" math="0" shadow="0">
      <root>
        <mxCell id="0"/>
        <mxCell id="1" parent="0"/>
        <mxCell id="oWH08BV5QVG5EaFKPN-z-1" value="Actor" style="shape=umlActor;verticalLabelPosition=bottom;labelBackgroundColor=#ffffff;verticalAlign=top;html=1;" vertex="1" parent="1">
          <mxGeometry x="160" y="40" width="30" height="60" as="geometry"/>
        </mxCell>
        <mxCell id="oWH08BV5QVG5EaFKPN-z-2" value="" style="html=1;points=[];perimeter=orthogonalPerimeter;" vertex="1" parent="1">
          <mxGeometry x="640" y="130" width="10" height="200" as="geometry"/>
        </mxCell>
        <mxCell id="oWH08BV5QVG5EaFKPN-z-3" value="OwnCoachClass" style="html=1;" vertex="1" parent="1">
          <mxGeometry x="590" y="60" width="110" height="50" as="geometry"/>
        </mxCell>
        <mxCell id="oWH08BV5QVG5EaFKPN-z-4" value="click on own coach button()" style="text;html=1;align=center;verticalAlign=middle;resizable=0;points=[];;autosize=1;" vertex="1" parent="1">
          <mxGeometry x="215" y="140" width="160" height="20" as="geometry"/>
        </mxCell>
        <mxCell id="oWH08BV5QVG5EaFKPN-z-5" value="" style="endArrow=open;endFill=1;endSize=12;html=1;" edge="1" parent="1">
          <mxGeometry width="160" relative="1" as="geometry">
            <mxPoint x="185" y="169" as="sourcePoint"/>
            <mxPoint x="388" y="169" as="targetPoint"/>
            <Array as="points">
              <mxPoint x="330" y="168"/>
            </Array>
          </mxGeometry>
        </mxCell>
        <mxCell id="oWH08BV5QVG5EaFKPN-z-6" value="" style="endArrow=block;dashed=1;endFill=0;endSize=12;html=1;entryX=1.28;entryY=0.865;entryDx=0;entryDy=0;entryPerimeter=0;" edge="1" parent="1">
          <mxGeometry width="160" relative="1" as="geometry">
            <mxPoint x="390" y="303" as="sourcePoint"/>
            <mxPoint x="182.79999999999995" y="303" as="targetPoint"/>
            <Array as="points"/>
          </mxGeometry>
        </mxCell>
        <mxCell id="oWH08BV5QVG5EaFKPN-z-7" value="push OwnCoachView on stack()" style="text;html=1;align=center;verticalAlign=middle;resizable=0;points=[];;autosize=1;" vertex="1" parent="1">
          <mxGeometry x="200" y="270" width="190" height="20" as="geometry"/>
        </mxCell>
        <mxCell id="oWH08BV5QVG5EaFKPN-z-8" value="" style="html=1;points=[];perimeter=orthogonalPerimeter;" vertex="1" parent="1">
          <mxGeometry x="390.5" y="350" width="10" height="160" as="geometry"/>
        </mxCell>
        <mxCell id="oWH08BV5QVG5EaFKPN-z-9" value="" style="endArrow=open;endFill=1;endSize=12;html=1;" edge="1" parent="1">
          <mxGeometry width="160" relative="1" as="geometry">
            <mxPoint x="180" y="380" as="sourcePoint"/>
            <mxPoint x="390" y="378" as="targetPoint"/>
          </mxGeometry>
        </mxCell>
        <mxCell id="oWH08BV5QVG5EaFKPN-z-10" value="" style="endArrow=block;dashed=1;endFill=0;endSize=12;html=1;entryX=1.2;entryY=0.876;entryDx=0;entryDy=0;entryPerimeter=0;" edge="1" parent="1">
          <mxGeometry width="160" relative="1" as="geometry">
            <mxPoint x="390" y="490" as="sourcePoint"/>
            <mxPoint x="182" y="490.15999999999997" as="targetPoint"/>
            <Array as="points">
              <mxPoint x="280" y="490"/>
            </Array>
          </mxGeometry>
        </mxCell>
        <mxCell id="oWH08BV5QVG5EaFKPN-z-11" value="" style="html=1;points=[];perimeter=orthogonalPerimeter;" vertex="1" parent="1">
          <mxGeometry x="391" y="130" width="10" height="200" as="geometry"/>
        </mxCell>
        <mxCell id="oWH08BV5QVG5EaFKPN-z-12" value="system" style="html=1;" vertex="1" parent="1">
          <mxGeometry x="341" y="60" width="110" height="50" as="geometry"/>
        </mxCell>
        <mxCell id="oWH08BV5QVG5EaFKPN-z-13" value="" style="endArrow=open;endFill=1;endSize=12;html=1;entryX=-0.56;entryY=0.201;entryDx=0;entryDy=0;entryPerimeter=0;" edge="1" parent="1" target="oWH08BV5QVG5EaFKPN-z-2">
          <mxGeometry width="160" relative="1" as="geometry">
            <mxPoint x="400" y="170" as="sourcePoint"/>
            <mxPoint x="560" y="170" as="targetPoint"/>
          </mxGeometry>
        </mxCell>
        <mxCell id="oWH08BV5QVG5EaFKPN-z-14" value="make an object from&amp;nbsp; OwnCoachClass()" style="text;html=1;align=center;verticalAlign=middle;resizable=0;points=[];;autosize=1;" vertex="1" parent="1">
          <mxGeometry x="410.5" y="140" width="230" height="20" as="geometry"/>
        </mxCell>
        <mxCell id="oWH08BV5QVG5EaFKPN-z-15" value="" style="endArrow=block;dashed=1;endFill=0;endSize=12;html=1;entryX=1.18;entryY=0.861;entryDx=0;entryDy=0;entryPerimeter=0;exitX=-0.56;exitY=0.865;exitDx=0;exitDy=0;exitPerimeter=0;" edge="1" parent="1" source="oWH08BV5QVG5EaFKPN-z-2" target="oWH08BV5QVG5EaFKPN-z-11">
          <mxGeometry width="160" relative="1" as="geometry">
            <mxPoint x="420" y="300" as="sourcePoint"/>
            <mxPoint x="580" y="300" as="targetPoint"/>
          </mxGeometry>
        </mxCell>
        <mxCell id="oWH08BV5QVG5EaFKPN-z-16" value="load view for appear()" style="text;html=1;align=center;verticalAlign=middle;resizable=0;points=[];;autosize=1;" vertex="1" parent="1">
          <mxGeometry x="451" y="270" width="130" height="20" as="geometry"/>
        </mxCell>
        <mxCell id="oWH08BV5QVG5EaFKPN-z-17" value="click on coach name(coach id)" style="text;html=1;align=center;verticalAlign=middle;resizable=0;points=[];;autosize=1;" vertex="1" parent="1">
          <mxGeometry x="185" y="350" width="180" height="20" as="geometry"/>
        </mxCell>
        <mxCell id="oWH08BV5QVG5EaFKPN-z-20" value="show program info(info)" style="text;html=1;align=center;verticalAlign=middle;resizable=0;points=[];;autosize=1;" vertex="1" parent="1">
          <mxGeometry x="205" y="460" width="140" height="20" as="geometry"/>
        </mxCell>
        <mxCell id="oWH08BV5QVG5EaFKPN-z-21" value="Sequence Diagram of Edit profile" style="text;html=1;strokeColor=none;fillColor=none;align=center;verticalAlign=middle;whiteSpace=wrap;rounded=0;" vertex="1" parent="1">
          <mxGeometry x="225" y="20" width="330" height="20" as="geometry"/>
        </mxCell>
        <mxCell id="oWH08BV5QVG5EaFKPN-z-22" value="" style="endArrow=none;dashed=1;html=1;" edge="1" parent="1">
          <mxGeometry width="50" height="50" relative="1" as="geometry">
            <mxPoint x="180" y="520" as="sourcePoint"/>
            <mxPoint x="180" y="140" as="targetPoint"/>
          </mxGeometry>
        </mxCell>
        <mxCell id="oWH08BV5QVG5EaFKPN-z-23" value="Text" style="text;html=1;align=center;verticalAlign=middle;resizable=0;points=[];;autosize=1;" vertex="1" parent="1">
          <mxGeometry x="523" y="287" width="40" height="20" as="geometry"/>
        </mxCell>
        <mxCell id="oWH08BV5QVG5EaFKPN-z-24" value="" style="html=1;points=[];perimeter=orthogonalPerimeter;" vertex="1" parent="1">
          <mxGeometry x="640" y="350" width="10" height="160" as="geometry"/>
        </mxCell>
        <mxCell id="oWH08BV5QVG5EaFKPN-z-27" value="" style="endArrow=open;endFill=1;endSize=12;html=1;" edge="1" parent="1">
          <mxGeometry width="160" relative="1" as="geometry">
            <mxPoint x="410.5" y="380" as="sourcePoint"/>
            <mxPoint x="620.5" y="378" as="targetPoint"/>
          </mxGeometry>
        </mxCell>
        <mxCell id="oWH08BV5QVG5EaFKPN-z-28" value="" style="endArrow=block;dashed=1;endFill=0;endSize=12;html=1;entryX=1.2;entryY=0.876;entryDx=0;entryDy=0;entryPerimeter=0;" edge="1" parent="1">
          <mxGeometry width="160" relative="1" as="geometry">
            <mxPoint x="620.5" y="490" as="sourcePoint"/>
            <mxPoint x="412.5" y="490.15999999999997" as="targetPoint"/>
            <Array as="points">
              <mxPoint x="510.5" y="490"/>
            </Array>
          </mxGeometry>
        </mxCell>
        <mxCell id="oWH08BV5QVG5EaFKPN-z-29" value="request for coach program(coach id)" style="text;html=1;align=center;verticalAlign=middle;resizable=0;points=[];;autosize=1;" vertex="1" parent="1">
          <mxGeometry x="400.5" y="350" width="210" height="20" as="geometry"/>
        </mxCell>
        <mxCell id="oWH08BV5QVG5EaFKPN-z-30" value="return coach program(program info)" style="text;html=1;align=center;verticalAlign=middle;resizable=0;points=[];;autosize=1;" vertex="1" parent="1">
          <mxGeometry x="400.5" y="460" width="210" height="20" as="geometry"/>
        </mxCell>
      </root>
    </mxGraphModel>
  </diagram>
</mxfile>
